<svg xmlns="http://www.w3.org/2000/svg" width="125" height="125" viewBox="0 0 125 125">
  <g id="Group_256" data-name="Group 256" transform="translate(-1390 -1511)">
    <circle id="Ellipse_86" data-name="Ellipse 86" cx="62.5" cy="62.5" r="62.5" transform="translate(1390 1511)" fill="#3e35c7"/>
    <path id="Icon_awesome-question" data-name="Icon awesome-question" d="M22.722,0c-9.466,0-15.6,3.878-20.41,10.795a2.849,2.849,0,0,0,.614,3.9l5.116,3.879a2.846,2.846,0,0,0,3.944-.492c2.971-3.722,5.174-5.864,9.814-5.864,3.648,0,8.161,2.348,8.161,5.886,0,2.674-2.208,4.048-5.81,6.068-4.2,2.355-9.76,5.286-9.76,12.619v1.161A2.846,2.846,0,0,0,17.236,40.8h8.594a2.846,2.846,0,0,0,2.846-2.846v-.685c0-5.083,14.856-5.295,14.856-19.049C43.533,7.857,32.788,0,22.722,0ZM21.534,44.289A8.215,8.215,0,1,0,29.749,52.5,8.224,8.224,0,0,0,21.534,44.289Z" transform="translate(1429.834 1543.141)" fill="#fff" stroke="#3e35c7" stroke-linecap="round" stroke-linejoin="round" stroke-width="4"/>
  </g>
</svg>
